HIERARCHY
ROOT Hips
{
  OFFSET 13.6774 106.653 -34.4427
  CHANNELS 6 Xposition Yposition Zposition Zrotation Xrotation Yrotation
  JOINT ToSpine
  {
    OFFSET -2.69724 7.43032 -0.144315
    CHANNELS 3 Zrotation Xrotation Yrotation
    JOINT Spine
    {
      OFFSET -0.0310711 10.7595 1.96963
      CHANNELS 3 Zrotation Xrotation Yrotation
      JOINT Spine1
      {
        OFFSET 19.9056 3.91189 0.764692
        CHANNELS 3 Zrotation Xrotation Yrotation
        JOINT Neck
        {
          OFFSET 25.9749 7.03908 -0.130764
          CHANNELS 3 Zrotation Xrotation Yrotation
          JOINT Head
          {
            OFFSET 9.52751 0.295786 -0.907742
            CHANNELS 3 Zrotation Xrotation Yrotation
            End Site
            {
              OFFSET 16.4037 0.713936 2.7358
            }
          }
        }
        JOINT LeftShoulder
        {
          OFFSET 17.7449 4.33886 11.7777
          CHANNELS 3 Zrotation Xrotation Yrotation
          JOINT LeftArm
          {
            OFFSET 0.911315 1.27913 9.80584
            CHANNELS 3 Zrotation Xrotation Yrotation
            JOINT LeftForeArm
            {
              OFFSET 28.6126 1.18197 -3.53199
              CHANNELS 3 Zrotation Xrotation Yrotation
              JOINT LeftHand
              {
                OFFSET 27.5088 0.0218783 0.327423
                CHANNELS 3 Zrotation Xrotation Yrotation
                End Site
                {
                  OFFSET 18.6038 -0.000155887 0.382096
                }
              }
            }
          }
        }
        JOINT RightShoulder
        {
          OFFSET 17.1009 2.89543 -12.2328
          CHANNELS 3 Zrotation Xrotation Yrotation
          JOINT RightArm
          {
            OFFSET 1.4228 0.178766 -10.211
            CHANNELS 3 Zrotation Xrotation Yrotation
            JOINT RightForeArm
            {
              OFFSET 28.733 1.87905 2.64907
              CHANNELS 3 Zrotation Xrotation Yrotation
              JOINT RightHand
              {
                OFFSET 27.4588 0.290562 -0.101845
                CHANNELS 3 Zrotation Xrotation Yrotation
                End Site
                {
                  OFFSET 17.8396 -0.255518 -0.000602873
                }
              }
            }
          }
        }
      }
    }
  }
  JOINT LeftUpLeg
  {
    OFFSET -5.61296 -2.22332 -10.2353
    CHANNELS 3 Zrotation Xrotation Yrotation
    JOINT LeftLeg
    {
      OFFSET 2.56703 -44.7417 -7.93097
      CHANNELS 3 Zrotation Xrotation Yrotation
      JOINT LeftFoot
      {
        OFFSET 3.16933 -46.5642 -3.96578
        CHANNELS 3 Zrotation Xrotation Yrotation
        JOINT LeftToeBase
        {
          OFFSET 0.346054 -6.02161 12.8035
          CHANNELS 3 Zrotation Xrotation Yrotation
          End Site
          {
            OFFSET 0.134235 -1.35082 5.13018
          }
        }
      }
    }
  }
  JOINT RightUpLeg
  {
    OFFSET -5.7928 -1.72406 10.6446
    CHANNELS 3 Zrotation Xrotation Yrotation
    JOINT RightLeg
    {
      OFFSET -2.57161 -44.7178 -7.85259
      CHANNELS 3 Zrotation Xrotation Yrotation
      JOINT RightFoot
      {
        OFFSET -3.10148 -46.5936 -4.03391
        CHANNELS 3 Zrotation Xrotation Yrotation
        JOINT RightToeBase
        {
          OFFSET -0.0828122 -6.13587 12.8035
          CHANNELS 3 Zrotation Xrotation Yrotation
          End Site
          {
            OFFSET -0.131328 -1.35082 5.13018
          }
        }
      }
    }
  }
}
MOTION
Frames: 16
Frame Time: 0.03333333333333333
0.0000 93.1000 0.0000 50.9694 -40.1668 -24.0142 -70.6966 0.2688 88.6061 127.9710 67.2076 -42.5599 3.0960 20.8478 3.0650 -115.6566 30.3955 162.7442 154.0396 65.2144 -99.9841 0.5798 -9.1791 -5.3893 -70.9087 45.5261 -159.3809 34.2968 -4.1373 -93.8786 -0.3348 0.5690 -0.7571 -3.2207 8.0548 48.8685 -129.9295 -6.1526 83.6100 11.4943 -4.5593 71.9377 0.5320 -1.0945 -0.9957 -2.9050 19.4398 79.9134 -3.7398 48.4650 -6.9200 -7.0638 8.3521 1.7170 5.0043 -11.0788 4.1059 -22.2762 -5.7875 97.9420 4.7125 65.1916 -5.5805 -6.1344 -22.3808 1.6060 1.0494 -17.7886 -19.1652 
0.0000 93.1000 0.0000 52.2010 -41.2526 -23.5126 -70.7060 0.7443 88.5813 121.8849 69.5988 -36.4122 2.7101 22.2931 3.3758 -114.6751 31.4012 162.8418 152.0829 66.0002 -99.6546 1.4306 -8.9711 -6.5692 -68.0548 44.8657 -157.1562 31.9139 -4.6057 -94.8632 -0.2089 0.8522 -0.9171 -2.8899 8.1205 47.6403 -126.1963 -4.8981 83.0147 10.9616 -7.0830 60.2947 0.7123 -1.4553 -1.0807 -10.2299 19.2772 79.3031 -3.1094 38.6613 -11.0922 -8.3699 13.3273 2.1581 4.1134 -8.9772 0.2549 -30.4537 -9.6614 95.5031 2.8200 57.5037 -1.6229 -6.0229 -18.5400 1.8546 1.3765 -20.0363 -18.1189 
0.0000 93.1000 0.0000 55.0736 -43.0665 -22.3212 -70.7828 0.5574 88.5476 120.0303 71.6099 -33.9201 1.5280 23.4855 3.7054 -115.4213 32.7966 165.6627 150.8386 66.8282 -102.0621 1.6048 -7.8617 -8.1198 -67.0757 44.3716 -152.1123 30.3666 -5.5099 -96.9542 -0.3141 0.6070 -0.9311 -3.0866 7.7078 46.2685 -123.2522 -4.5307 82.2052 9.2966 -8.0490 50.9518 0.7282 -1.7106 -1.2062 -18.3098 19.1787 81.4302 -2.8993 36.1147 -12.5785 -7.7738 9.7963 1.6780 3.5664 -7.0372 0.1682 -37.0439 -13.4170 93.8399 2.5993 52.8295 1.0452 -6.0753 -12.6882 1.5041 1.5996 -20.8741 -20.2704 
0.0000 93.1000 0.0000 58.1980 -45.5141 -21.0570 -70.8557 0.7148 88.3605 123.9958 72.5740 -37.5579 -0.1847 23.9103 4.5289 -120.5243 34.2837 168.6973 145.4277 68.2530 -103.7621 1.9219 -7.6463 -9.9990 -67.9072 44.9692 -147.2982 29.3111 -5.9400 -99.6184 -0.4928 0.8163 -1.2616 -2.8574 7.4405 45.3845 -121.4092 -2.6878 80.9788 6.9484 -7.4396 43.9947 0.8157 -1.7824 -1.3765 -23.9980 18.6995 84.8964 -3.9877 39.1365 -13.9206 -5.8234 4.3913 0.5690 3.7176 -7.3797 2.0039 -41.7717 -16.3852 93.3893 1.9359 50.4816 -0.6455 -7.0928 -7.6110 1.5593 1.0403 -16.8246 -18.0672 
0.0000 93.1000 0.0000 59.1031 -46.5100 -21.0783 -70.8557 0.4199 88.3524 119.0181 73.6020 -33.8903 -1.3466 24.3540 3.9581 -121.5257 35.3240 165.8279 148.9441 70.0886 -109.4032 1.5081 -7.0189 -11.6711 -70.8321 44.0700 -142.9700 27.0781 -6.2400 -100.6236 0.1093 0.4450 -0.4912 -2.7383 7.3673 45.9833 -119.8238 -0.7013 81.3959 5.0886 -6.8970 39.7162 0.4570 -0.5707 -0.3467 -27.5179 17.4862 88.6970 -4.0799 40.8690 -14.5470 -3.5794 2.5681 0.2224 4.0276 -9.9075 2.1530 -43.0458 -17.6170 92.5945 1.4434 50.5319 -4.0582 -8.1689 -6.1580 0.9706 1.5081 -14.8127 -14.4247 
0.0000 93.1000 0.0000 59.9477 -47.1864 -20.7481 -70.8722 0.2863 88.2897 117.5562 74.4645 -32.1702 -2.5182 24.9660 4.5933 -124.4650 36.2506 166.8091 146.3214 71.2227 -109.7781 1.3710 -6.7193 -13.5279 -74.9713 43.1435 -139.8350 27.2664 -6.8995 -102.1673 -0.1374 0.3062 -0.4638 -2.9479 7.5190 45.8777 -120.5129 -0.4695 81.2809 3.5040 -6.1901 36.8454 0.4969 -0.6862 -0.4837 -31.5302 15.9680 91.0676 -3.9767 39.7369 -14.9366 -2.8722 0.1601 -0.0765 3.3146 -8.9349 4.6545 -43.9558 -18.1298 90.7430 1.1905 48.0492 0.1149 -8.1530 -4.6315 1.0167 2.1703 -19.1967 -17.3624 
0.0000 93.1000 0.0000 59.8934 -47.7297 -21.2810 -70.9342 0.1106 88.2777 111.7618 75.2937 -26.2291 -2.2569 25.1245 4.2814 -127.4838 36.7929 167.0026 146.0670 72.4651 -112.8374 1.1887 -5.8796 -15.1431 -78.8413 41.5130 -136.7086 24.7372 -7.2504 -103.8909 -0.3348 -0.0433 -0.2170 -3.1426 7.5230 45.2559 -121.1661 -0.8428 80.3016 2.3867 -4.5396 35.9223 0.3175 -0.5160 -0.2259 -34.9012 15.5702 93.0448 -4.3915 38.1245 -15.2837 -2.7261 -0.1685 -0.1671 3.3928 -10.0739 5.8577 -44.4838 -17.8896 87.7249 1.6215 41.9710 3.8106 -5.8347 -3.2210 0.5406 1.7879 -17.4940 -15.6755 
0.0000 93.1000 0.0000 60.1716 -47.9012 -20.1178 -70.8227 0.0846 88.3659 107.6666 75.2370 -22.1908 -2.4149 25.2116 4.3576 -130.3918 37.8569 167.8625 147.5288 73.9047 -117.0485 1.2893 -5.8118 -16.3210 -81.2552 41.1868 -135.7549 19.9535 -6.6455 -105.8468 -0.1411 -0.0109 -0.3273 -3.0671 7.4579 44.7611 -123.0235 -1.9818 78.0523 3.1224 -4.6338 36.9617 0.3346 -0.5430 -0.1941 -37.1438 14.7934 94.8831 -3.9650 37.1140 -16.1807 -2.6873 -1.0583 -0.5259 3.1309 -10.0172 7.0127 -46.4874 -16.8373 84.0094 1.0924 34.3498 6.3310 -2.3504 0.5028 -0.1731 1.9832 -16.4030 -12.3921 
0.0000 93.1000 0.0000 60.3889 -47.3749 -19.5705 -70.6949 0.2261 88.3746 103.4415 75.3673 -19.1345 -2.8992 25.1428 4.3843 -131.5620 37.9236 165.2012 149.8626 75.1835 -121.4260 1.4127 -6.0960 -16.5098 -82.7483 40.1139 -135.9589 18.2497 -7.0086 -106.9437 -0.1482 0.1343 -0.3030 -2.7657 7.2806 44.7351 -123.5237 -3.0914 76.2743 2.7486 -4.6117 38.6787 0.2362 -0.5836 -0.1069 -39.7174 13.8428 96.9945 -3.8946 35.4835 -16.0820 -2.9787 -1.2032 -0.7334 2.9126 -9.2023 8.0956 -48.0500 -15.8609 80.0522 0.0345 28.2274 10.2198 -0.8046 3.9148 -0.9076 1.6567 -13.7717 -9.8393 
0.0000 93.1000 0.0000 62.3476 -46.8197 -20.1629 -70.5926 0.2114 88.4463 97.5869 75.2836 -15.0970 -2.6034 24.2203 4.7136 -132.3637 37.8544 164.6797 149.5858 76.0523 -122.9179 1.7059 -6.2425 -17.2741 -84.8536 39.7366 -135.7760 17.8475 -7.0145 -108.0335 0.0985 0.3929 -0.4564 -2.5522 7.1950 45.7795 -124.1103 -2.3455 75.3285 2.9124 -5.1783 40.8882 0.2792 -0.5447 0.0315 -41.8363 12.0327 99.0411 -4.5270 34.2125 -16.0019 -2.8995 -1.7412 -0.8320 2.6769 -8.8269 9.1166 -48.3174 -15.5416 78.9644 0.8478 24.4605 10.0901 0.8632 6.7687 -1.3128 0.9164 -11.0437 -7.5771 
0.0000 93.1000 0.0000 62.9682 -45.7670 -19.3584 -70.6721 -0.0211 88.4403 93.3721 74.9576 -11.9512 -2.7919 23.6548 5.2309 -133.4241 37.9599 165.2375 151.8295 76.5414 -125.4975 1.5942 -7.3221 -18.4704 -85.6789 38.9486 -136.0369 16.7839 -7.0020 -109.0812 0.1024 0.1655 -0.2267 -2.7942 6.8803 46.1422 -125.2200 -3.0757 73.7882 3.9556 -5.2259 44.7505 0.4134 -0.4640 -0.1248 -43.5672 9.8921 99.9313 -3.0945 33.4559 -15.8023 -1.9331 -2.2483 -1.1415 2.0134 -8.7343 8.5912 -48.9963 -15.8759 78.7438 1.0067 21.0560 4.0144 1.9448 7.5176 -1.6452 0.4380 -6.8438 -4.9800 
0.0000 93.1000 0.0000 64.1171 -45.0848 -19.4271 -70.6217 0.0009 88.5514 90.5792 74.1677 -9.3872 -2.7591 23.0831 5.3037 -133.3304 38.0327 163.8980 154.7375 77.1719 -127.2647 1.6643 -8.1578 -19.6218 -86.7889 37.8778 -136.7737 16.3819 -6.5239 -109.3775 -0.4182 0.3803 -0.4582 -2.8767 6.8506 46.2751 -125.9941 -3.6717 72.0176 4.8281 -5.4808 48.6872 0.5570 -1.0763 -0.6792 -44.8805 8.9324 100.0096 -3.0673 33.5800 -15.4332 -0.9628 -3.2307 -1.3500 2.5379 -9.3102 7.6464 -50.4424 -16.2347 78.0856 1.1052 19.1534 -1.0694 0.9673 8.7499 -1.1558 -0.0969 -6.5253 -2.0626 
0.0000 93.1000 0.0000 65.0246 -44.0293 -18.1890 -70.6122 0.1206 88.5469 87.3076 74.2061 -6.8491 -2.2102 23.0073 5.0417 -133.2682 38.1452 164.7863 152.9378 77.2851 -127.1532 1.2765 -8.8139 -20.1892 -86.7469 36.9425 -136.7473 16.2022 -7.0804 -109.3277 -0.2747 0.1778 -0.0630 -2.7542 6.3702 45.9879 -126.9831 -4.4110 70.0306 5.7473 -5.8045 50.8971 0.2936 -0.3924 -0.1160 -45.9732 7.9035 100.7514 -3.2358 34.4383 -14.3047 -0.5387 -3.9391 -1.2449 2.1942 -7.8021 6.2911 -51.1232 -16.7524 77.3889 0.9105 18.4093 -4.0513 1.4891 8.7204 -1.7917 0.8941 -4.4684 -4.9262 
0.0000 93.1000 0.0000 66.0292 -43.9314 -18.3526 -70.5598 -0.1089 88.3757 84.4465 74.2082 -4.7393 -2.1226 23.2560 4.9432 -133.1198 38.4793 164.1586 153.0363 77.5033 -129.0941 0.8108 -8.9202 -20.9680 -86.4181 36.8858 -136.8872 16.4099 -7.2015 -109.0268 -0.1449 -0.1593 -0.1131 -2.8750 6.0928 45.0011 -127.8446 -5.1476 68.7045 6.5809 -5.8382 52.4716 -0.0591 -0.2382 0.0416 -46.7820 6.7930 100.7653 -2.6707 35.0993 -13.0773 0.3565 -5.7177 -1.1355 2.1311 -6.9277 6.9755 -52.3183 -16.9598 77.5076 1.3945 18.0427 -3.4828 1.6465 8.9382 -1.8388 0.8086 -3.8599 -9.5680 
0.0000 93.1000 0.0000 66.1926 -44.1464 -18.1545 -70.4665 -0.1338 88.3672 83.4101 74.4381 -3.8283 -1.7926 23.2794 5.0331 -133.1891 38.7695 165.3585 153.8587 78.2747 -128.5698 0.7202 -9.1547 -21.2714 -85.8159 37.0347 -136.7456 17.0732 -6.3210 -107.9579 -0.0102 -0.2333 0.2129 -2.9986 5.8756 44.9601 -127.8313 -5.5065 67.9676 7.2385 -6.2616 53.5719 -0.1363 0.2155 0.2128 -46.9745 5.0624 98.9884 -3.0700 36.3981 -11.1608 1.4159 -7.9529 -1.2121 1.8068 -7.3069 6.3198 -53.2457 -16.8173 77.4844 1.3586 18.5075 -7.4882 0.4099 8.1215 -1.5583 1.1142 -4.7208 -6.9757 
0.0000 93.1000 0.0000 66.3921 -44.3208 -17.2428 -70.3812 0.0186 88.3455 82.2923 74.8781 -1.6717 -1.9044 23.3784 5.1349 -133.0086 39.1267 164.8540 152.8079 78.2474 -129.0121 0.8398 -8.9226 -21.2234 -84.8642 36.9052 -137.0314 17.3544 -6.1459 -107.1494 -0.1630 -0.1498 0.1112 -2.9421 6.0415 44.9897 -127.7058 -5.4110 67.8353 7.0947 -5.7875 54.5585 0.0242 -0.0281 -0.0068 -47.0140 3.9108 97.8849 -3.3998 38.2125 -8.7011 2.3749 -9.5305 -1.4717 2.0217 -6.8572 6.1968 -53.9920 -18.0545 76.4848 1.2061 18.0569 -10.1222 -1.9852 8.6656 -0.8361 0.6793 -7.3160 -1.8455 
